<svg width="196" height="50" viewBox="0 0 196 50" fill="none" xmlns="http://www.w3.org/2000/svg">
<g clip-path="url(#clip0_21_5)">
<path d="M26.043 34.75V35C25.843 35.3333 25.5596 35.5 25.193 35.5C24.7263 35.5 24.4263 35.4166 24.293 35.25C24.0263 33.8833 21.7763 31.7166 17.543 28.75C13.3096 25.75 10.443 24.25 8.94296 24.25C7.04296 24.25 6.09297 24.25 6.09297 24.25V27.3499C6.09297 27.7833 6.20963 28.7833 6.44296 30.3499C6.64296 32.0166 6.80963 32.9333 6.94296 33.0999C7.50963 33.9999 7.79297 34.4166 7.79297 34.3499C7.79297 35.1166 7.35963 35.5 6.49297 35.5C5.5263 35.5 4.79297 35.15 4.29297 34.45C3.79297 33.75 3.54297 30.4833 3.54297 24.65C3.54297 24.1833 2.95964 23.7666 1.79297 23.4C0.626302 23.0333 0.0429688 22.6 0.0429688 22.1C0.0429688 21.3666 1.10963 20.7 3.24297 20.1C3.4763 18.9 3.6263 17.3 3.69296 15.3C3.8263 12.8 3.9263 11.1833 3.99297 10.45C4.0263 10.0833 4.1763 9.08328 4.44296 7.44995C4.6763 6.21662 4.7763 5.19995 4.74297 4.39995C4.5763 4.29995 4.12631 4.24995 3.39297 4.24995C2.69297 4.24995 2.34297 3.96662 2.34297 3.39995C2.34297 2.69995 2.67631 2.26662 3.34297 2.09995C3.80964 1.96662 4.29297 1.83328 4.79297 1.69995C4.89297 1.36662 5.10963 0.999952 5.44296 0.599952C5.74296 0.499952 6.00963 0.449951 6.24297 0.449951C6.60963 0.449951 6.97631 0.633285 7.34297 0.999952C7.74297 1.36662 8.09297 1.54995 8.39297 1.54995C8.55964 1.54995 8.79297 1.53328 9.09297 1.49995C9.39297 1.43328 9.6263 1.39995 9.79297 1.39995C13.493 1.39995 16.6096 2.16662 19.143 3.69995C22.243 5.49995 23.793 8.13328 23.793 11.6C23.793 14.4666 22.943 16.8 21.243 18.6C20.1763 19.7666 18.1096 21.1833 15.043 22.85C14.843 22.8833 14.6096 22.9666 14.343 23.1C15.0096 23.7333 16.5096 24.8166 18.843 26.3499C21.1763 27.8833 22.843 29.1333 23.843 30.0999C25.3763 31.6333 26.1096 33.1833 26.043 34.75ZM21.193 11.4C21.193 8.86662 20.043 6.91662 17.743 5.54995C15.843 4.41662 13.543 3.84995 10.843 3.84995C9.8763 3.84995 9.0763 3.91662 8.44296 4.04995L7.79297 5.04995C7.3263 5.81662 7.05963 6.83328 6.99297 8.09995C6.9263 9.93328 6.85964 11.0166 6.79297 11.35C6.39297 13.25 6.1263 16.2666 5.99297 20.4C8.45963 21.3333 9.99297 21.8 10.593 21.8C11.0596 21.8 11.7263 21.6666 12.593 21.4C15.0596 20.6666 17.0596 19.45 18.593 17.75C20.3263 15.9166 21.193 13.8 21.193 11.4Z" fill="#E0E0E0"/>
<path d="M41.8883 30.0499C41.8883 31.5166 40.905 32.8333 38.9383 34C37.1716 35.0666 35.505 35.5998 33.9383 35.5998C29.4716 35.5998 27.2383 32.7666 27.2383 27.0999C27.2383 24.5999 27.6883 21.9166 28.5883 19.05C29.7883 15.3166 31.3216 13.45 33.1883 13.45C34.7883 13.45 36.5383 14.2666 38.4383 15.9C40.3383 17.5 41.2883 19.1 41.2883 20.7C41.2883 22.7666 40.4549 24.5666 38.7883 26.0999C37.1216 27.6333 35.2383 28.4 33.1383 28.4C32.9383 28.4 32.505 28.2333 31.8383 27.9C31.205 27.5666 30.7716 27.4 30.5383 27.4C30.1049 27.4 29.8883 27.5333 29.8883 27.7999C29.8883 31.6333 31.155 33.5499 33.6883 33.5499C34.9883 33.5499 36.1883 33.1166 37.2883 32.25C37.9549 31.75 38.6883 30.9666 39.4883 29.9C40.1216 29.0666 40.5383 28.65 40.7383 28.65C41.5049 28.65 41.8883 29.1166 41.8883 30.0499ZM38.4383 20.85C38.4383 19.6833 38.105 18.6 37.4383 17.6C36.7716 16.5666 35.8883 16.0499 34.7883 16.0499C33.4549 16.0499 32.3716 16.8833 31.5383 18.5499C30.8383 19.9499 30.4883 21.4 30.4883 22.9C30.4883 23.8666 30.7883 24.6833 31.3883 25.35C32.0216 25.9833 32.8216 26.2999 33.7883 26.2999C35.1549 26.2999 36.2883 25.7166 37.1883 24.55C38.0216 23.4833 38.4383 22.25 38.4383 20.85Z" fill="#E0E0E0"/>
<path d="M59.3117 36.45C59.3117 36.9166 58.9451 37.15 58.2117 37.15C57.4117 37.15 56.9284 36.8166 56.7617 36.15C56.7284 36.05 56.7117 35.4 56.7117 34.2C56.7117 33.8666 56.6617 33.6 56.5617 33.4C54.695 34.7666 52.6784 35.45 50.5117 35.45C49.0117 35.45 47.5617 35.0333 46.1617 34.2C44.5617 33.2666 43.7617 32.1 43.7617 30.7C43.7617 29.3333 44.7117 28 46.6117 26.7C48.3451 25.5 49.945 24.9 51.4117 24.9H56.3617C56.5617 24.7 56.6617 24.35 56.6617 23.85C56.6617 21.6166 56.4784 19.9333 56.1117 18.7999C55.5117 16.8999 54.3284 15.95 52.5617 15.95C51.295 15.95 50.1284 16.75 49.0617 18.35C48.095 19.8166 47.6117 21.2166 47.6117 22.5499C47.6117 22.6166 47.6117 22.7166 47.6117 22.85C47.6117 22.9833 47.6117 23.0666 47.6117 23.1C47.6117 23.3666 47.4784 23.5 47.2117 23.5C46.8784 23.5 46.5117 23.3 46.1117 22.9C45.7117 22.5 45.5117 22.15 45.5117 21.85C45.5117 20.9166 45.7951 19.75 46.3617 18.35C46.9284 16.9166 47.5451 15.8333 48.2117 15.1C49.0451 14.2 50.0784 13.75 51.3117 13.75C53.2117 13.75 54.9617 14.35 56.5617 15.55C58.2617 16.85 59.1284 18.4166 59.1617 20.25L59.3117 36.45ZM56.6617 28.5C56.6617 27.1666 55.6284 26.5 53.5617 26.5C51.9284 26.5 50.4951 26.7833 49.2617 27.3499C47.6951 28.0833 46.9117 29.1833 46.9117 30.65C46.9117 31.55 47.3284 32.25 48.1617 32.75C48.8617 33.1833 49.695 33.4 50.6617 33.4C52.095 33.4 53.4451 32.9333 54.7117 32C56.0117 31.0666 56.6617 29.9 56.6617 28.5Z" fill="#E0E0E0"/>
<path d="M66.5633 34.5C66.5633 35.3666 66.0966 35.7999 65.1633 35.7999C63.6966 35.7999 62.9799 32.7833 63.0133 26.75L63.1633 4.3C63.1633 3.93333 63.1133 3.41667 63.0133 2.75C62.9133 2.05 62.8633 1.53333 62.8633 1.2C63.4966 0.733333 64.03 0.5 64.4633 0.5C64.93 0.5 65.3966 0.666667 65.8633 1C66.3299 1.33333 66.5633 1.73333 66.5633 2.2C66.5633 2.53333 66.48 2.96667 66.3133 3.5C66.1133 4.16667 65.9966 4.58334 65.9633 4.75C65.5633 7.01667 65.3633 10.1833 65.3633 14.25C65.3633 20.8166 65.3466 23.9833 65.3133 23.75C65.4133 27.85 65.6799 30.9333 66.1133 33C66.1133 33.1 66.18 33.3334 66.3133 33.7001C66.48 34.0334 66.5633 34.3 66.5633 34.5Z" fill="#E0E0E0"/>
<path d="M94.6211 22.75C94.6211 26.05 94.1377 28.8166 93.1711 31.0499C91.8711 34.1499 89.8211 35.7 87.0211 35.7C85.1878 35.7 83.5878 34.85 82.2211 33.15C81.9878 33.25 81.8711 34.2833 81.8711 36.25C81.8711 40.5833 82.0878 43.65 82.5211 45.45C82.5544 45.6166 82.7044 46.0166 82.9711 46.65C83.2711 47.2833 83.4211 47.6666 83.4211 47.7999C83.4211 48.3333 83.0877 48.5999 82.4211 48.5999C81.6211 48.5999 81.0544 48.4833 80.7211 48.25C80.4211 48.0166 80.1544 47.25 79.9211 45.95C79.7211 44.85 79.6211 43.9833 79.6211 43.3499V30.65C79.6211 29.4833 79.6878 27.9166 79.8211 25.95C79.9544 23.65 80.0378 22.0833 80.0711 21.25C80.1044 20.35 80.1044 19.1833 80.0711 17.75C80.0378 15.9166 80.0211 14.7333 80.0211 14.2C80.0211 11.9 80.6211 10.75 81.8211 10.75C82.4211 10.75 82.7211 10.9666 82.7211 11.4C82.7211 12.2333 82.6544 13.45 82.5211 15.0499C82.3878 16.6499 82.3211 17.85 82.3211 18.65H82.5211C83.2878 17.6166 84.0544 16.5666 84.8211 15.5C85.7211 14.3333 86.8377 13.75 88.1711 13.75C90.4044 13.75 92.0878 14.7499 93.2211 16.75C94.1544 18.35 94.6211 20.35 94.6211 22.75ZM92.1711 22.95C92.1711 21.1833 91.9878 19.6666 91.6211 18.4C91.0544 16.5333 90.1378 15.6 88.8711 15.6C87.9378 15.6 86.8044 16.4166 85.4711 18.05C84.3044 19.4833 83.4878 20.95 83.0211 22.45C82.6544 23.5833 82.3544 25.25 82.1211 27.45C81.9544 29.05 81.8711 29.8166 81.8711 29.75C81.8711 29.85 82.0211 30.0166 82.3211 30.25C82.5211 30.3833 82.7211 30.5333 82.9211 30.7C83.4544 31.4666 83.9878 32.2499 84.5211 33.0499C85.0878 33.8166 85.9211 34.2 87.0211 34.2C88.8544 34.2 90.2377 32.7 91.1711 29.7C91.8377 27.5666 92.1711 25.3166 92.1711 22.95Z" fill="#E0E0E0"/>
<path d="M108.221 17.2001C108.221 17.3334 108.204 17.6167 108.171 18.0501C107.738 18.7167 107.321 19.0501 106.921 19.0501C106.654 19.0501 106.421 18.8834 106.221 18.55C106.121 16.45 105.254 15.4001 103.621 15.4001C102.554 15.4001 101.504 17.3667 100.471 21.3C100.071 22.7334 99.8711 24.65 99.8711 27.05C99.8711 30.1167 99.9544 32.0001 100.121 32.7001C100.154 32.8001 100.238 33.0167 100.371 33.35C100.504 33.65 100.571 33.8834 100.571 34.05C100.571 34.7834 100.071 35.1501 99.0711 35.1501C97.9378 35.1501 97.3711 34.5667 97.3711 33.4001C97.3711 33.2334 97.4044 33.0001 97.4711 32.7001C97.5711 32.3667 97.6211 32.1167 97.6211 31.9501C97.6211 30.1167 97.5378 27.3667 97.3711 23.7001C97.2044 20.0334 97.1211 17.2834 97.1211 15.4501C97.1211 14.7834 97.2378 14.3834 97.4711 14.2501C97.7044 14.0834 98.1544 14.0001 98.8211 14.0001C99.6544 14.0001 100.138 14.3001 100.271 14.9001C100.304 15.5667 100.338 16.2167 100.371 16.8501C101.238 15.5167 101.738 14.7667 101.871 14.6001C102.604 13.7667 103.371 13.3501 104.171 13.3501C104.771 13.3501 105.371 13.5334 105.971 13.9001C106.304 14.1001 106.754 14.6167 107.321 15.4501C107.921 16.2834 108.221 16.8667 108.221 17.2001Z" fill="#E0E0E0"/>
<path d="M124.573 25.15C124.573 28.0166 123.939 30.5167 122.673 32.6501C121.173 35.2167 119.089 36.5 116.423 36.5C113.723 36.5 111.706 35.4499 110.373 33.3499C109.273 31.6166 108.723 29.3166 108.723 26.45C108.723 23.6166 109.356 20.8333 110.623 18.1C112.223 14.7333 114.256 13.05 116.723 13.05C117.356 13.05 118.256 13.4166 119.423 14.15C122.856 16.2833 124.573 19.9499 124.573 25.15ZM122.173 25.1C122.173 22.9666 121.889 21.05 121.323 19.35C120.489 16.9833 119.206 15.8 117.473 15.8C115.473 15.8 113.906 17.1166 112.773 19.75C111.906 21.7833 111.473 23.9666 111.473 26.2999C111.473 28.3999 111.773 30.1666 112.373 31.5999C113.239 33.5666 114.589 34.5499 116.423 34.5499C118.423 34.5499 119.939 33.4166 120.973 31.15C121.773 29.3833 122.173 27.3666 122.173 25.1Z" fill="#E0E0E0"/>
<path d="M133.482 10.3501C133.482 10.8167 133.265 11.2167 132.832 11.55C132.432 11.8834 131.999 12.0501 131.532 12.0501C131.032 12.0501 130.315 11.4501 129.382 10.2501C129.382 10.1167 129.382 9.88338 129.382 9.55005C129.382 8.55005 129.882 8.05005 130.882 8.05005C131.549 8.05005 132.149 8.26672 132.682 8.70005C133.215 9.13338 133.482 9.68338 133.482 10.3501ZM133.182 15.4501C132.615 17.1167 132.332 18.6667 132.332 20.1001C132.332 22.3667 132.382 25.7667 132.482 30.3C132.582 34.8 132.632 38.1834 132.632 40.4501C132.632 42.6501 132.099 44.5834 131.032 46.2501C129.765 48.1834 128.099 49.1501 126.032 49.1501C124.932 49.1501 123.332 48.6667 121.232 47.7001C118.899 46.6667 117.732 45.6834 117.732 44.7501C117.732 44.1834 118.082 43.9001 118.782 43.9001C119.015 43.9001 119.182 43.9167 119.282 43.9501C120.815 45.8167 122.715 46.7501 124.982 46.7501C128.449 46.7501 130.182 43.7334 130.182 37.7001C130.182 37.5334 130.065 30.2167 129.832 15.7501L130.232 15.3001C131.265 15.0334 131.849 14.9001 131.982 14.9001C132.415 14.9001 132.815 15.0834 133.182 15.4501Z" fill="#E0E0E0"/>
<path d="M150.638 30.0499C150.638 31.5166 149.655 32.8333 147.688 34C145.922 35.0666 144.255 35.5998 142.688 35.5998C138.222 35.5998 135.988 32.7666 135.988 27.0999C135.988 24.5999 136.438 21.9166 137.338 19.05C138.538 15.3166 140.072 13.45 141.938 13.45C143.538 13.45 145.288 14.2666 147.188 15.9C149.088 17.5 150.038 19.1 150.038 20.7C150.038 22.7666 149.205 24.5666 147.538 26.0999C145.872 27.6333 143.988 28.4 141.888 28.4C141.688 28.4 141.255 28.2333 140.588 27.9C139.955 27.5666 139.522 27.4 139.288 27.4C138.855 27.4 138.638 27.5333 138.638 27.7999C138.638 31.6333 139.905 33.5499 142.438 33.5499C143.738 33.5499 144.938 33.1166 146.038 32.25C146.705 31.75 147.438 30.9666 148.238 29.9C148.872 29.0666 149.288 28.65 149.488 28.65C150.255 28.65 150.638 29.1166 150.638 30.0499ZM147.188 20.85C147.188 19.6833 146.855 18.6 146.188 17.6C145.522 16.5666 144.638 16.0499 143.538 16.0499C142.205 16.0499 141.122 16.8833 140.288 18.5499C139.588 19.9499 139.238 21.4 139.238 22.9C139.238 23.8666 139.538 24.6833 140.138 25.35C140.772 25.9833 141.572 26.2999 142.538 26.2999C143.905 26.2999 145.038 25.7166 145.938 24.55C146.772 23.4833 147.188 22.25 147.188 20.85Z" fill="#E0E0E0"/>
<path d="M168.602 29.7999C168.602 30.5999 167.919 31.6833 166.552 33.0499C165.186 34.3833 164.069 35.1666 163.202 35.4C162.036 35.7666 161.069 35.95 160.302 35.95C157.869 35.95 156.002 35.0666 154.702 33.2999C153.502 31.7333 152.902 29.7 152.902 27.2C152.902 24.6333 153.452 21.7666 154.552 18.6C155.919 14.6666 157.619 12.7 159.652 12.7C160.619 12.7 161.902 13.1833 163.502 14.15C165.102 15.0833 166.002 15.9833 166.202 16.85C166.436 17.8833 166.552 18.9 166.552 19.9C166.552 23.5666 166.002 25.4 164.902 25.4C164.636 25.4 164.319 25.3 163.952 25.1C163.586 24.9 163.402 24.6666 163.402 24.4C163.402 24.2666 163.469 24.1 163.602 23.9C163.736 23.6666 163.819 23.5166 163.852 23.45C163.986 23.0166 164.052 22.0166 164.052 20.45C164.052 16.75 163.219 14.9 161.552 14.9C159.719 14.9 158.219 16.5833 157.052 19.95C156.186 22.55 155.752 25.0166 155.752 27.3499C155.752 29.1499 156.036 30.6498 156.602 31.8498C157.369 33.4165 158.552 34.2 160.152 34.2C161.119 34.2 162.252 33.7 163.552 32.7C164.719 31.8 165.586 30.8498 166.152 29.8498C166.286 29.5165 166.486 29.05 166.752 28.45C166.919 28.2166 167.152 28.0999 167.452 28.0999C167.652 28.0999 167.886 28.3333 168.152 28.7999C168.452 29.2333 168.602 29.5666 168.602 29.7999Z" fill="#E0E0E0"/>
<path d="M178.704 19.2501C178.437 19.4501 177.804 19.6167 176.804 19.7501C175.704 19.8834 175.071 20.0001 174.904 20.1001C174.871 20.4667 174.854 22.3167 174.854 25.6501C174.854 28.25 174.887 30.0001 174.954 30.9001C174.954 31.2667 175.037 31.8501 175.204 32.6501C175.371 33.4501 175.454 34.0667 175.454 34.5001C175.454 34.7667 175.287 35.0334 174.954 35.3C174.621 35.5667 174.321 35.7001 174.054 35.7001C173.387 35.7001 172.854 35.0167 172.454 33.6501C172.187 32.6501 172.054 31.7 172.054 30.8C172.054 26.1 172.087 22.6334 172.154 20.4001C171.954 20.2334 171.187 20.2334 169.854 20.4001C168.787 20.5334 168.254 20.1501 168.254 19.2501C168.254 17.9834 169.604 17.4001 172.304 17.5001L172.954 8.45001C172.954 8.35001 172.904 8.20001 172.804 8.00001C172.737 7.76668 172.704 7.60001 172.704 7.50001C172.704 7.30001 172.837 7.11668 173.104 6.95001C173.371 6.75001 173.687 6.66668 174.054 6.70001C175.221 6.80001 175.804 7.38335 175.804 8.45001C175.804 9.28334 175.687 10.5334 175.454 12.2001C175.221 13.8667 175.104 15.1001 175.104 15.9001C175.104 16.3001 175.137 16.6834 175.204 17.0501L177.954 16.9001C178.887 16.9001 179.354 17.2667 179.354 18.0001C179.354 18.5334 179.137 18.95 178.704 19.2501Z" fill="#E0E0E0"/>
<path d="M195.205 32.0498C195.205 33.2165 194.322 34.1999 192.555 34.9999C191.089 35.6332 189.672 35.9499 188.305 35.9499C187.405 35.9499 186.372 35.7332 185.205 35.2998C184.572 35.0332 183.555 34.3332 182.155 33.1999C180.622 31.9665 179.855 31.1165 179.855 30.6499C179.855 29.6165 180.472 29.1499 181.705 29.2499H182.005C182.072 30.2499 183.139 31.3332 185.205 32.4999C187.072 33.5665 188.572 34.0998 189.705 34.0998C191.172 34.0998 191.905 33.5998 191.905 32.5998C191.905 31.9998 191.005 31.1665 189.205 30.0998C186.739 28.6665 185.055 27.5165 184.155 26.6499C182.322 24.8832 181.405 22.8499 181.405 20.5499C181.405 18.8165 181.855 17.1665 182.755 15.5999C183.789 13.7332 185.089 12.7998 186.655 12.7998C187.789 12.7998 189.155 13.3332 190.755 14.3999C192.355 15.4332 193.289 16.4832 193.555 17.5498C193.822 18.4498 193.955 19.4999 193.955 20.6999C193.955 21.9999 193.722 23.4165 193.255 24.9499C192.955 25.1832 192.605 25.2999 192.205 25.2999C191.972 25.2999 191.605 25.2165 191.105 25.0498C190.605 24.8498 190.355 24.6499 190.355 24.4499C190.355 24.5832 190.539 24.2165 190.905 23.3499C191.172 22.7832 191.305 21.7499 191.305 20.2499C191.305 16.6832 190.189 14.8999 187.955 14.8999C186.789 14.8999 185.855 15.6832 185.155 17.2499C184.555 18.5165 184.255 19.7999 184.255 21.0999C184.255 22.7332 185.205 24.3165 187.105 25.8499C187.739 26.3832 189.489 27.5332 192.355 29.2998C194.255 30.4665 195.205 31.3832 195.205 32.0498Z" fill="#E0E0E0"/>
</g>
<defs>
<clipPath id="clip0_21_5">
<rect width="196" height="50" fill="white"/>
</clipPath>
</defs>
</svg>
