<svg width="800" height="800" viewBox="0 0 800 800" fill="none" xmlns="http://www.w3.org/2000/svg">
<g clip-path="url(#clip0_39_2)">
<rect width="800" height="800" rx="400" fill="black"/>
<path d="M399.772 0.0333181H402.796C475.695 0.0333181 543.912 20.4573 602.341 56.0077L600.553 54.9748C661.388 91.4248 710.649 141.902 745.212 202.307L746.22 204.24C780.036 263.179 800 334.047 800 409.679C800 589.796 686.75 742.859 529.247 798.101L526.418 798.967C524.37 799.633 522.029 800 519.623 800C514.355 800 509.478 798.201 505.544 795.202L505.609 795.236C501.447 791.404 498.846 785.873 498.846 779.709C498.846 779.543 498.846 779.376 498.846 779.243V779.276C498.846 778.21 498.932 764.594 499.106 738.428C499.279 712.262 499.366 688.34 499.366 666.661C499.594 664.162 499.724 661.297 499.724 658.365C499.724 631.977 489.221 608.121 472.281 590.896C492.375 588.863 510.519 585.465 528.142 580.734L525.671 581.3C544.302 575.969 560.559 568.873 575.646 559.91L574.638 560.476C591.156 551.147 605.137 539.286 616.648 525.226L616.843 524.993C628.938 509.133 638.4 490.475 644.155 470.185L644.448 469.018C651.244 446.262 655.145 420.107 655.145 393.02C655.145 391.521 655.145 389.988 655.113 388.489V388.722C655.113 387.989 655.145 387.156 655.145 386.323C655.145 344.742 639.473 306.926 613.884 278.706L613.981 278.806C619.444 264.146 622.598 247.22 622.598 229.528C622.598 207.905 617.883 187.447 609.462 169.089L609.82 169.955C606.08 169.222 601.821 168.789 597.431 168.789C586.571 168.789 576.329 171.388 567.225 175.986L567.615 175.819C549.146 182.816 533.344 190.746 518.452 200.008L519.688 199.275L499.886 212.069C469.907 203.273 435.474 198.209 399.902 198.209C364.331 198.209 329.898 203.273 297.252 212.736L299.886 212.069C294.337 208.16 286.956 203.351 277.743 197.643C265.615 190.513 251.276 183.616 236.384 177.818L234.238 177.086C224.711 171.955 213.429 168.956 201.431 168.956C197.399 168.956 193.432 169.289 189.595 169.955L190.018 169.889C181.954 187.347 177.239 207.838 177.239 229.461C177.239 247.153 180.393 264.112 186.181 279.738L185.856 278.772C160.332 306.893 144.692 344.709 144.692 386.29C144.692 387.123 144.692 387.989 144.724 388.822V388.689C144.692 389.988 144.692 391.487 144.692 393.02C144.692 419.974 148.594 446.029 155.877 470.551L155.389 468.652C161.535 490.075 170.867 508.7 183.027 525.059L182.735 524.626C194.245 539.12 208.161 551.047 223.931 560.01L224.646 560.376C238.693 568.773 254.983 575.869 272.118 580.834L273.614 581.2C288.766 585.365 306.909 588.763 325.476 590.663L326.971 590.796C312.957 605.056 303.625 624.114 301.479 645.371L301.447 645.771C294.716 649.136 286.88 651.868 278.719 653.634L278.036 653.767C269.712 655.466 260.185 656.432 250.398 656.432C249.683 656.432 248.968 656.432 248.252 656.432H248.35C235.539 656.166 223.768 651.901 214.046 644.838L214.242 644.971C202.178 636.342 192.424 625.147 185.596 612.119L185.368 611.62C178.93 600.425 170.444 591.162 160.397 584.066L160.104 583.866C152.788 578.235 144.172 573.837 134.872 571.205L134.352 571.072L123.947 569.472C123.199 569.406 122.322 569.372 121.444 569.372C116.892 569.372 112.567 570.305 108.633 571.938L108.86 571.838C106.086 573.437 105.219 575.481 106.259 577.968C107.527 580.834 109.088 583.299 110.974 585.465L110.941 585.432C112.925 587.831 115.168 589.93 117.607 591.762L117.704 591.829L121.346 594.494C130.548 599.425 138.124 606.289 143.879 614.585L144.009 614.785C150.219 622.681 155.682 631.61 160.072 641.173L160.397 641.972L165.599 654.233C169.989 667.627 177.955 678.822 188.36 686.918L188.522 687.052C198.277 694.848 210.047 700.446 222.891 702.978L223.411 703.044C234.141 705.177 246.627 706.509 259.372 706.776H259.6C261.063 706.843 262.754 706.843 264.477 706.843C272.964 706.843 281.288 706.143 289.416 704.777L288.538 704.91L300.504 702.778C300.504 716.305 300.591 732.053 300.764 750.023C300.938 767.992 301.024 777.688 301.024 779.11V779.576C301.024 785.74 298.423 791.271 294.261 795.102C290.392 798.068 285.515 799.867 280.215 799.867C277.776 799.867 275.435 799.5 273.256 798.801L273.419 798.834C113.152 742.56 0 589.496 0 409.346C0 333.78 19.8992 262.979 54.6578 202.141L53.6173 204.073C89.1887 141.735 138.449 91.2582 197.399 55.8411L199.285 54.8082C255.828 20.3573 323.98 0 396.749 0H399.935H399.772V0.0333181ZM151.357 588.63C152.398 586.142 151.184 584.01 147.716 582.233C144.248 581.167 141.993 581.522 140.953 583.299C139.912 585.787 141.126 587.919 144.594 589.696C147.716 591.829 149.97 591.473 151.357 588.63ZM167.517 606.789C169.945 605.012 169.598 602.168 166.477 598.259C163.009 595.061 160.234 594.527 158.153 596.66C155.725 598.437 156.072 601.28 159.194 605.189C162.64 608.677 165.415 609.198 167.517 606.755V606.789ZM183.125 630.778C186.246 628.29 186.246 624.914 183.125 620.649C180.35 616.029 177.402 614.963 174.281 617.45C171.159 619.227 171.159 622.426 174.281 627.046C177.402 631.666 180.35 632.91 183.125 630.778ZM204.975 653.201C207.749 650.357 207.056 646.981 202.894 643.072C198.732 638.807 195.264 638.274 192.489 641.473C189.368 644.316 190.061 647.692 194.57 651.601C198.732 655.866 202.2 656.355 204.975 653.067V653.201ZM234.661 666.528C235.702 662.618 233.447 659.775 227.898 657.998C222.695 656.577 219.401 657.821 218.013 661.73C216.626 665.639 218.88 668.305 224.776 669.726C229.979 671.881 233.274 670.815 234.661 666.528ZM267.469 669.193C267.469 664.573 264.521 662.619 258.625 663.329C253.075 663.329 250.301 665.284 250.301 669.193C250.301 673.813 253.249 675.768 259.145 675.057C264.694 675.079 267.469 673.103 267.469 669.193ZM297.675 663.862C296.982 659.953 293.86 658.354 288.311 659.065C282.762 660.131 280.334 662.796 281.027 667.061C281.721 671.326 284.843 672.747 290.392 671.326C295.941 669.904 298.347 667.416 297.675 663.862Z" fill="white"/>
</g>
<defs>
<clipPath id="clip0_39_2">
<rect width="800" height="800" rx="400" fill="white"/>
</clipPath>
</defs>
</svg>
